<svg width="24" height="24" viewBox="0 0 24 24" fill="none" xmlns="http://www.w3.org/2000/svg">
<mask id="mask0_tv" style="mask-type:alpha" maskUnits="userSpaceOnUse" x="0" y="0" width="24" height="24">
<rect width="24" height="24" fill="#D9D9D9"/>
</mask>
<g mask="url(#mask0_tv)">
<path d="M8 21C7.71667 21 7.47917 20.9042 7.2875 20.7125C7.09583 20.5208 7 20.2833 7 20C7 19.7167 7.09583 19.4792 7.2875 19.2875C7.47917 19.0958 7.71667 19 8 19H16C16.2833 19 16.5208 19.0958 16.7125 19.2875C16.9042 19.4792 17 19.7167 17 20C17 20.2833 16.9042 20.5208 16.7125 20.7125C16.5208 20.9042 16.2833 21 16 21H8ZM4 17C3.45 17 2.97917 16.8042 2.5875 16.4125C2.19583 16.0208 2 15.55 2 15V5C2 4.45 2.19583 3.97917 2.5875 3.5875C2.97917 3.19583 3.45 3 4 3H20C20.55 3 21.0208 3.19583 21.4125 3.5875C21.8042 3.97917 22 4.45 22 5V15C22 15.55 21.8042 16.0208 21.4125 16.4125C21.0208 16.8042 20.55 17 20 17H4ZM4 15H20V5H4V15Z" fill="#333333"/>
</g>
</svg>
